<?xml version="1.0" encoding="iso-8859-1"?>
<!-- Generator: Adobe Illustrator 19.0.0, SVG Export Plug-In . SVG Version: 6.00 Build 0)  -->
<svg version="1.1" id="Capa_1" xmlns="http://www.w3.org/2000/svg" xmlns:xlink="http://www.w3.org/1999/xlink" x="0px" y="0px"
	 viewBox="0 0 512 512" style="enable-background:new 0 0 512 512;" xml:space="preserve">
<path style="fill:#FFFFFF;" d="M349.165,502h-186.33C130.342,502,104,475.658,104,443.165V68.835C104,36.342,130.342,10,162.835,10
	h186.329C381.658,10,408,36.342,408,68.835v374.329C408,475.658,381.658,502,349.165,502z"/>
<rect x="108.94" y="60.665" style="fill:#F5B955;" width="298.78" height="387.33"/>
<polyline style="fill:#78D2FA;" points="332.401,287.093 209.625,164.317 122.516,251.426 243.065,371.975 366.642,248.399 408,265 
	408,283.16 347.492,343.668 408.162,404.338 407.719,445.783 395.245,445.755 320.325,370.835 243.16,448 167.041,448 
	214.94,400.101 107.169,292.33 103.968,198.93 177.24,125.658 113.907,62.325 164.567,62.325 203.141,100.899 238.424,65.616 
	308.991,65.616 238.867,133.562 360.173,254.868 "/>
<path style="fill:#FF5A5A;" d="M408,265l-90.063-40.625L227.873,265l90.063-137.348L408,265z"/>
<path d="M418,68.835C418,30.879,387.12,0,349.164,0H162.836C124.88,0,94,30.879,94,68.835v374.329
	C94,481.121,124.88,512,162.836,512h186.328C387.12,512,418,481.121,418,443.165V68.835z M114,438V313.303l86.798,86.797l-37.9,37.9
	H114z M162.1,74l33.399,33.399c1.876,1.875,4.419,2.929,7.071,2.929s5.195-1.054,7.071-2.929L243.04,74h43.423l-55.111,55.111
	c-3.905,3.905-3.905,10.237,0,14.143l38.893,38.893l-10.827,16.511l-41.735-41.734c-3.906-3.905-10.236-3.905-14.143,0
	l-87.764,87.764c-0.729,0.729-1.321,1.542-1.777,2.408v-44.053l67.83-67.83c1.875-1.875,2.929-4.419,2.929-7.071
	s-1.054-5.196-2.929-7.071L134.761,74H162.1z M190.384,74h24.372L202.57,86.186L190.384,74z M398,231.514l-71.701-109.345
	c-1.848-2.819-4.992-4.517-8.362-4.517s-6.515,1.698-8.362,4.517l-28.127,42.894l-28.881-28.881L314.749,74H398V231.514z
	 M330.83,270.069l-27.938-27.937l15.044-6.786l32.815,14.802L330.83,270.069z M322.048,215.259
	c-1.307-0.589-2.709-0.884-4.111-0.884s-2.805,0.295-4.111,0.884l-31.081,14.019c-0.905,0.259-1.779,0.651-2.596,1.171
	l-25.08,11.313l36.072-55.011c0.215-0.293,0.413-0.593,0.592-0.902l26.204-39.961l62.868,95.875L322.048,215.259z M114,81.524
	l46.616,46.616L114,174.756V81.524z M222.012,407.171c1.875-1.875,2.929-4.418,2.929-7.071s-1.054-5.196-2.929-7.071
	l-107.771-107.77c-0.078-0.077-0.162-0.143-0.241-0.218V256.42c0.457,0.866,1.049,1.679,1.777,2.408l34.446,34.447
	c1.953,1.953,4.512,2.929,7.071,2.929s5.118-0.977,7.071-2.929c3.905-3.905,3.905-10.237,0-14.142l-27.376-27.376l73.622-73.622
	l37.604,37.604l-28.706,43.777c-2.438,3.718-2.129,8.599,0.76,11.979c2.887,3.379,7.659,4.448,11.714,2.62l51.415-23.192
	l33.288,33.287l-73.622,73.622l-26.199-26.2c-3.906-3.905-10.236-3.905-14.143,0c-3.905,3.905-3.905,10.237,0,14.143l33.271,33.271
	c1.953,1.953,4.512,2.929,7.071,2.929s5.118-0.976,7.071-2.929L370.244,258.94L398,271.46v7.558l-57.579,57.579
	c-1.875,1.875-2.929,4.419-2.929,7.071s1.054,5.196,2.929,7.071L398,408.318v26.049l-70.604-70.603
	c-3.906-3.906-10.236-3.906-14.143,0L239.018,438h-47.834L222.012,407.171z M320.325,384.977L373.348,438H267.302L320.325,384.977z
	 M398,380.033l-36.365-36.365L398,307.303V380.033z M162.836,20h186.328c21.757,0,40.23,14.304,46.525,34H116.311
	C122.606,34.304,141.079,20,162.836,20z M349.164,492H162.836c-21.757,0-40.23-14.304-46.525-34h279.378
	C389.394,477.696,370.921,492,349.164,492z"/>
<path d="M183.05,301.96c-2.64,0-5.22,1.06-7.07,2.93c-1.87,1.86-2.93,4.43-2.93,7.06c0,2.64,1.06,5.22,2.93,7.08
	c1.86,1.86,4.431,2.93,7.07,2.93c2.63,0,5.2-1.07,7.07-2.93c1.859-1.87,2.93-4.44,2.93-7.08c0-2.63-1.07-5.2-2.93-7.06
	C188.26,303.02,185.68,301.96,183.05,301.96z"/>
<path d="M256,466c-2.63,0-5.21,1.07-7.07,2.93S246,473.37,246,476s1.069,5.21,2.93,7.07S253.37,486,256,486
	c2.64,0,5.21-1.07,7.069-2.93c1.86-1.86,2.931-4.44,2.931-7.07s-1.07-5.21-2.931-7.07C261.21,467.07,258.64,466,256,466z"/>
<g>
</g>
<g>
</g>
<g>
</g>
<g>
</g>
<g>
</g>
<g>
</g>
<g>
</g>
<g>
</g>
<g>
</g>
<g>
</g>
<g>
</g>
<g>
</g>
<g>
</g>
<g>
</g>
<g>
</g>
</svg>
